<mxfile host="app.diagrams.net" modified="2024-04-12T00:31:28.550Z" agent="Mozilla/5.0 (Windows NT 10.0; Win64; x64) AppleWebKit/537.36 (KHTML, like Gecko) Chrome/123.0.0.0 Safari/537.36" etag="zwvUkVyX6-6l4_Kbj6yf" version="24.2.3" type="google">
  <diagram name="PÃ¡gina-1" id="CN-iyciOrPx-XxprcTTz">
    <mxGraphModel grid="1" page="1" gridSize="10" guides="1" tooltips="1" connect="1" arrows="1" fold="1" pageScale="1" pageWidth="827" pageHeight="1169" background="none" math="0" shadow="0">
      <root>
        <mxCell id="0" />
        <mxCell id="1" parent="0" />
        <mxCell id="ek_O1ejtyZ3YDJewovoq-1" value="Restaurante" style="swimlane;fontStyle=0;childLayout=stackLayout;horizontal=1;startSize=30;horizontalStack=0;resizeParent=1;resizeParentMax=0;resizeLast=0;collapsible=1;marginBottom=0;whiteSpace=wrap;html=1;labelBackgroundColor=none;fillColor=#B2C9AB;strokeColor=#788AA3;fontColor=#46495D;rounded=1;" vertex="1" parent="1">
          <mxGeometry x="20" y="-1150" width="140" height="210" as="geometry" />
        </mxCell>
        <mxCell id="ek_O1ejtyZ3YDJewovoq-2" value="&lt;b&gt;id (PK) : INT&lt;/b&gt;" style="text;strokeColor=none;fillColor=#B2C9AB;align=left;verticalAlign=middle;spacingLeft=4;spacingRight=4;overflow=hidden;points=[[0,0.5],[1,0.5]];portConstraint=eastwest;rotatable=0;whiteSpace=wrap;html=1;labelBackgroundColor=none;rounded=1;fillStyle=auto;gradientDirection=east;fontColor=#46495D;" vertex="1" parent="ek_O1ejtyZ3YDJewovoq-1">
          <mxGeometry y="30" width="140" height="30" as="geometry" />
        </mxCell>
        <mxCell id="ek_O1ejtyZ3YDJewovoq-3" value="nombre : VARCHAR" style="text;strokeColor=none;fillColor=none;align=left;verticalAlign=middle;spacingLeft=4;spacingRight=4;overflow=hidden;points=[[0,0.5],[1,0.5]];portConstraint=eastwest;rotatable=0;whiteSpace=wrap;html=1;labelBackgroundColor=none;fontColor=#46495D;rounded=1;" vertex="1" parent="ek_O1ejtyZ3YDJewovoq-1">
          <mxGeometry y="60" width="140" height="30" as="geometry" />
        </mxCell>
        <mxCell id="ek_O1ejtyZ3YDJewovoq-4" value="horario : VARCHAR" style="text;strokeColor=none;fillColor=none;align=left;verticalAlign=middle;spacingLeft=4;spacingRight=4;overflow=hidden;points=[[0,0.5],[1,0.5]];portConstraint=eastwest;rotatable=0;whiteSpace=wrap;html=1;labelBackgroundColor=none;fontColor=#46495D;rounded=1;" vertex="1" parent="ek_O1ejtyZ3YDJewovoq-1">
          <mxGeometry y="90" width="140" height="30" as="geometry" />
        </mxCell>
        <mxCell id="ek_O1ejtyZ3YDJewovoq-5" value="foto : LONGTEXT" style="text;strokeColor=none;fillColor=none;align=left;verticalAlign=middle;spacingLeft=4;spacingRight=4;overflow=hidden;points=[[0,0.5],[1,0.5]];portConstraint=eastwest;rotatable=0;whiteSpace=wrap;html=1;labelBackgroundColor=none;fontColor=#46495D;rounded=1;" vertex="1" parent="ek_O1ejtyZ3YDJewovoq-1">
          <mxGeometry y="120" width="140" height="30" as="geometry" />
        </mxCell>
        <mxCell id="ek_O1ejtyZ3YDJewovoq-6" value="direccion : VARCHAR" style="text;strokeColor=none;fillColor=none;align=left;verticalAlign=middle;spacingLeft=4;spacingRight=4;overflow=hidden;points=[[0,0.5],[1,0.5]];portConstraint=eastwest;rotatable=0;whiteSpace=wrap;html=1;labelBackgroundColor=none;fontColor=#46495D;rounded=1;" vertex="1" parent="ek_O1ejtyZ3YDJewovoq-1">
          <mxGeometry y="150" width="140" height="30" as="geometry" />
        </mxCell>
        <mxCell id="ek_O1ejtyZ3YDJewovoq-13" value="calificacion : DECIMAL" style="text;strokeColor=none;fillColor=none;align=left;verticalAlign=middle;spacingLeft=4;spacingRight=4;overflow=hidden;points=[[0,0.5],[1,0.5]];portConstraint=eastwest;rotatable=0;whiteSpace=wrap;html=1;labelBackgroundColor=none;fontColor=#46495D;rounded=1;" vertex="1" parent="ek_O1ejtyZ3YDJewovoq-1">
          <mxGeometry y="180" width="140" height="30" as="geometry" />
        </mxCell>
        <mxCell id="ek_O1ejtyZ3YDJewovoq-14" value="Plato" style="swimlane;fontStyle=0;childLayout=stackLayout;horizontal=1;startSize=30;horizontalStack=0;resizeParent=1;resizeParentMax=0;resizeLast=0;collapsible=1;marginBottom=0;whiteSpace=wrap;html=1;labelBackgroundColor=none;fillColor=#B2C9AB;strokeColor=#788AA3;fontColor=#46495D;rounded=1;" vertex="1" parent="1">
          <mxGeometry x="230" y="-1070" width="140" height="180" as="geometry" />
        </mxCell>
        <mxCell id="ek_O1ejtyZ3YDJewovoq-15" value="&lt;b&gt;id (PK) : INT&lt;/b&gt;" style="text;strokeColor=none;fillColor=#B2C9AB;align=left;verticalAlign=middle;spacingLeft=4;spacingRight=4;overflow=hidden;points=[[0,0.5],[1,0.5]];portConstraint=eastwest;rotatable=0;whiteSpace=wrap;html=1;labelBackgroundColor=none;rounded=1;gradientDirection=east;fontColor=#46495D;" vertex="1" parent="ek_O1ejtyZ3YDJewovoq-14">
          <mxGeometry y="30" width="140" height="30" as="geometry" />
        </mxCell>
        <mxCell id="ek_O1ejtyZ3YDJewovoq-16" value="nombre :VARCHAR" style="text;strokeColor=none;fillColor=none;align=left;verticalAlign=middle;spacingLeft=4;spacingRight=4;overflow=hidden;points=[[0,0.5],[1,0.5]];portConstraint=eastwest;rotatable=0;whiteSpace=wrap;html=1;labelBackgroundColor=none;fontColor=#46495D;rounded=1;" vertex="1" parent="ek_O1ejtyZ3YDJewovoq-14">
          <mxGeometry y="60" width="140" height="30" as="geometry" />
        </mxCell>
        <mxCell id="ek_O1ejtyZ3YDJewovoq-17" value="descripcion : VARCHAR" style="text;strokeColor=none;fillColor=none;align=left;verticalAlign=middle;spacingLeft=4;spacingRight=4;overflow=hidden;points=[[0,0.5],[1,0.5]];portConstraint=eastwest;rotatable=0;whiteSpace=wrap;html=1;labelBackgroundColor=none;fontColor=#46495D;rounded=1;" vertex="1" parent="ek_O1ejtyZ3YDJewovoq-14">
          <mxGeometry y="90" width="140" height="30" as="geometry" />
        </mxCell>
        <mxCell id="ek_O1ejtyZ3YDJewovoq-18" value="foto : LONGTEXT" style="text;strokeColor=none;fillColor=none;align=left;verticalAlign=middle;spacingLeft=4;spacingRight=4;overflow=hidden;points=[[0,0.5],[1,0.5]];portConstraint=eastwest;rotatable=0;whiteSpace=wrap;html=1;labelBackgroundColor=none;fontColor=#46495D;rounded=1;" vertex="1" parent="ek_O1ejtyZ3YDJewovoq-14">
          <mxGeometry y="120" width="140" height="30" as="geometry" />
        </mxCell>
        <mxCell id="ek_O1ejtyZ3YDJewovoq-19" value="precio : DECIMAL" style="text;strokeColor=none;fillColor=none;align=left;verticalAlign=middle;spacingLeft=4;spacingRight=4;overflow=hidden;points=[[0,0.5],[1,0.5]];portConstraint=eastwest;rotatable=0;whiteSpace=wrap;html=1;labelBackgroundColor=none;fontColor=#46495D;rounded=1;" vertex="1" parent="ek_O1ejtyZ3YDJewovoq-14">
          <mxGeometry y="150" width="140" height="30" as="geometry" />
        </mxCell>
        <mxCell id="ek_O1ejtyZ3YDJewovoq-20" value="Categoria" style="swimlane;fontStyle=0;childLayout=stackLayout;horizontal=1;startSize=30;horizontalStack=0;resizeParent=1;resizeParentMax=0;resizeLast=0;collapsible=1;marginBottom=0;whiteSpace=wrap;html=1;labelBackgroundColor=none;fillColor=#B2C9AB;strokeColor=#788AA3;fontColor=#46495D;rounded=1;" vertex="1" parent="1">
          <mxGeometry x="550" y="-1020" width="140" height="120" as="geometry" />
        </mxCell>
        <mxCell id="ek_O1ejtyZ3YDJewovoq-21" value="&lt;b&gt;id (PK) : INT&lt;/b&gt;" style="text;strokeColor=#788AA3;fillColor=#B2C9AB;align=left;verticalAlign=middle;spacingLeft=4;spacingRight=4;overflow=hidden;points=[[0,0.5],[1,0.5]];portConstraint=eastwest;rotatable=0;whiteSpace=wrap;html=1;labelBackgroundColor=none;rounded=1;shadow=0;textShadow=0;fontColor=#46495D;" vertex="1" parent="ek_O1ejtyZ3YDJewovoq-20">
          <mxGeometry y="30" width="140" height="30" as="geometry" />
        </mxCell>
        <mxCell id="ek_O1ejtyZ3YDJewovoq-22" value="nombre : VARCHAR" style="text;strokeColor=none;fillColor=none;align=left;verticalAlign=middle;spacingLeft=4;spacingRight=4;overflow=hidden;points=[[0,0.5],[1,0.5]];portConstraint=eastwest;rotatable=0;whiteSpace=wrap;html=1;labelBackgroundColor=none;fontColor=#46495D;rounded=1;" vertex="1" parent="ek_O1ejtyZ3YDJewovoq-20">
          <mxGeometry y="60" width="140" height="30" as="geometry" />
        </mxCell>
        <mxCell id="ek_O1ejtyZ3YDJewovoq-23" value="descripcion : VARCHAR" style="text;strokeColor=none;fillColor=none;align=left;verticalAlign=middle;spacingLeft=4;spacingRight=4;overflow=hidden;points=[[0,0.5],[1,0.5]];portConstraint=eastwest;rotatable=0;whiteSpace=wrap;html=1;labelBackgroundColor=none;fontColor=#46495D;rounded=1;" vertex="1" parent="ek_O1ejtyZ3YDJewovoq-20">
          <mxGeometry y="90" width="140" height="30" as="geometry" />
        </mxCell>
        <mxCell id="ek_O1ejtyZ3YDJewovoq-24" value="Ingredientes" style="swimlane;fontStyle=0;childLayout=stackLayout;horizontal=1;startSize=30;horizontalStack=0;resizeParent=1;resizeParentMax=0;resizeLast=0;collapsible=1;marginBottom=0;whiteSpace=wrap;html=1;labelBackgroundColor=none;fillColor=#B2C9AB;strokeColor=#788AA3;fontColor=#46495D;rounded=1;" vertex="1" parent="1">
          <mxGeometry x="670" y="-1135" width="140" height="90" as="geometry" />
        </mxCell>
        <mxCell id="ek_O1ejtyZ3YDJewovoq-25" value="&lt;b&gt;id (PK) : INT&lt;/b&gt;" style="text;strokeColor=#788AA3;fillColor=#B2C9AB;align=left;verticalAlign=middle;spacingLeft=4;spacingRight=4;overflow=hidden;points=[[0,0.5],[1,0.5]];portConstraint=eastwest;rotatable=0;whiteSpace=wrap;html=1;labelBackgroundColor=none;rounded=1;fontColor=#46495D;" vertex="1" parent="ek_O1ejtyZ3YDJewovoq-24">
          <mxGeometry y="30" width="140" height="30" as="geometry" />
        </mxCell>
        <mxCell id="ek_O1ejtyZ3YDJewovoq-26" value="nombre : VARCHAR" style="text;strokeColor=#788AA3;fillColor=none;align=left;verticalAlign=middle;spacingLeft=4;spacingRight=4;overflow=hidden;points=[[0,0.5],[1,0.5]];portConstraint=eastwest;rotatable=0;whiteSpace=wrap;html=1;labelBackgroundColor=none;rounded=1;fontColor=#46495D;" vertex="1" parent="ek_O1ejtyZ3YDJewovoq-24">
          <mxGeometry y="60" width="140" height="30" as="geometry" />
        </mxCell>
        <mxCell id="ek_O1ejtyZ3YDJewovoq-28" value="Pedido" style="swimlane;fontStyle=0;childLayout=stackLayout;horizontal=1;startSize=30;horizontalStack=0;resizeParent=1;resizeParentMax=0;resizeLast=0;collapsible=1;marginBottom=0;whiteSpace=wrap;html=1;labelBackgroundColor=none;fillColor=#B2C9AB;strokeColor=#788AA3;fontColor=#46495D;rounded=1;" vertex="1" parent="1">
          <mxGeometry x="50" y="-880" width="180" height="330" as="geometry" />
        </mxCell>
        <mxCell id="ek_O1ejtyZ3YDJewovoq-29" value="&lt;b&gt;id (PK) : INT&lt;/b&gt;" style="text;strokeColor=#788AA3;fillColor=#B2C9AB;align=left;verticalAlign=middle;spacingLeft=4;spacingRight=4;overflow=hidden;points=[[0,0.5],[1,0.5]];portConstraint=eastwest;rotatable=0;whiteSpace=wrap;html=1;labelBackgroundColor=none;rounded=1;fontColor=#46495D;" vertex="1" parent="ek_O1ejtyZ3YDJewovoq-28">
          <mxGeometry y="30" width="180" height="30" as="geometry" />
        </mxCell>
        <mxCell id="ek_O1ejtyZ3YDJewovoq-30" value="hora_pedido : TIME" style="text;strokeColor=none;fillColor=none;align=left;verticalAlign=middle;spacingLeft=4;spacingRight=4;overflow=hidden;points=[[0,0.5],[1,0.5]];portConstraint=eastwest;rotatable=0;whiteSpace=wrap;html=1;labelBackgroundColor=none;fontColor=#46495D;rounded=1;" vertex="1" parent="ek_O1ejtyZ3YDJewovoq-28">
          <mxGeometry y="60" width="180" height="30" as="geometry" />
        </mxCell>
        <mxCell id="ek_O1ejtyZ3YDJewovoq-31" value="plato : VARCHAR" style="text;strokeColor=none;fillColor=none;align=left;verticalAlign=middle;spacingLeft=4;spacingRight=4;overflow=hidden;points=[[0,0.5],[1,0.5]];portConstraint=eastwest;rotatable=0;whiteSpace=wrap;html=1;labelBackgroundColor=none;fontColor=#46495D;rounded=1;" vertex="1" parent="ek_O1ejtyZ3YDJewovoq-28">
          <mxGeometry y="90" width="180" height="30" as="geometry" />
        </mxCell>
        <mxCell id="ek_O1ejtyZ3YDJewovoq-32" value="cantidad : INT" style="text;strokeColor=none;fillColor=none;align=left;verticalAlign=middle;spacingLeft=4;spacingRight=4;overflow=hidden;points=[[0,0.5],[1,0.5]];portConstraint=eastwest;rotatable=0;whiteSpace=wrap;html=1;labelBackgroundColor=none;fontColor=#46495D;rounded=1;" vertex="1" parent="ek_O1ejtyZ3YDJewovoq-28">
          <mxGeometry y="120" width="180" height="30" as="geometry" />
        </mxCell>
        <mxCell id="ek_O1ejtyZ3YDJewovoq-33" value="total : DECIMAL" style="text;strokeColor=none;fillColor=none;align=left;verticalAlign=middle;spacingLeft=4;spacingRight=4;overflow=hidden;points=[[0,0.5],[1,0.5]];portConstraint=eastwest;rotatable=0;whiteSpace=wrap;html=1;labelBackgroundColor=none;fontColor=#46495D;rounded=1;" vertex="1" parent="ek_O1ejtyZ3YDJewovoq-28">
          <mxGeometry y="150" width="180" height="30" as="geometry" />
        </mxCell>
        <mxCell id="ek_O1ejtyZ3YDJewovoq-34" value="aclaraciones : VARCHAR" style="text;strokeColor=none;fillColor=none;align=left;verticalAlign=middle;spacingLeft=4;spacingRight=4;overflow=hidden;points=[[0,0.5],[1,0.5]];portConstraint=eastwest;rotatable=0;whiteSpace=wrap;html=1;labelBackgroundColor=none;fontColor=#46495D;rounded=1;" vertex="1" parent="ek_O1ejtyZ3YDJewovoq-28">
          <mxGeometry y="180" width="180" height="30" as="geometry" />
        </mxCell>
        <mxCell id="ek_O1ejtyZ3YDJewovoq-36" value="hora_envio : TIME" style="text;strokeColor=none;fillColor=none;align=left;verticalAlign=middle;spacingLeft=4;spacingRight=4;overflow=hidden;points=[[0,0.5],[1,0.5]];portConstraint=eastwest;rotatable=0;whiteSpace=wrap;html=1;labelBackgroundColor=none;fontColor=#46495D;rounded=1;" vertex="1" parent="ek_O1ejtyZ3YDJewovoq-28">
          <mxGeometry y="210" width="180" height="30" as="geometry" />
        </mxCell>
        <mxCell id="ek_O1ejtyZ3YDJewovoq-61" value="direccion_entrega : VARCHAR" style="text;strokeColor=none;fillColor=none;align=left;verticalAlign=middle;spacingLeft=4;spacingRight=4;overflow=hidden;points=[[0,0.5],[1,0.5]];portConstraint=eastwest;rotatable=0;whiteSpace=wrap;html=1;labelBackgroundColor=none;fontColor=#46495D;rounded=1;" vertex="1" parent="ek_O1ejtyZ3YDJewovoq-28">
          <mxGeometry y="240" width="180" height="30" as="geometry" />
        </mxCell>
        <mxCell id="In70b1UleZM99W8Dhsez-36" value="fecha_envio : DATE" style="text;strokeColor=none;fillColor=none;align=left;verticalAlign=middle;spacingLeft=4;spacingRight=4;overflow=hidden;points=[[0,0.5],[1,0.5]];portConstraint=eastwest;rotatable=0;whiteSpace=wrap;html=1;labelBackgroundColor=none;fontColor=#46495D;rounded=1;" vertex="1" parent="ek_O1ejtyZ3YDJewovoq-28">
          <mxGeometry y="270" width="180" height="30" as="geometry" />
        </mxCell>
        <mxCell id="ek_O1ejtyZ3YDJewovoq-35" value="&lt;b&gt;usuario_id (FK)&lt;/b&gt;" style="text;strokeColor=#788AA3;fillColor=#B2C9AB;align=left;verticalAlign=middle;spacingLeft=4;spacingRight=4;overflow=hidden;points=[[0,0.5],[1,0.5]];portConstraint=eastwest;rotatable=0;whiteSpace=wrap;html=1;labelBackgroundColor=none;rounded=1;fontColor=#46495D;" vertex="1" parent="ek_O1ejtyZ3YDJewovoq-28">
          <mxGeometry y="300" width="180" height="30" as="geometry" />
        </mxCell>
        <mxCell id="ek_O1ejtyZ3YDJewovoq-38" value="Usuario" style="swimlane;fontStyle=0;childLayout=stackLayout;horizontal=1;startSize=30;horizontalStack=0;resizeParent=1;resizeParentMax=0;resizeLast=0;collapsible=1;marginBottom=0;whiteSpace=wrap;html=1;labelBackgroundColor=none;fillColor=#B2C9AB;strokeColor=#788AA3;fontColor=#46495D;rounded=1;" vertex="1" parent="1">
          <mxGeometry x="600" y="-780" width="160" height="360" as="geometry" />
        </mxCell>
        <mxCell id="ek_O1ejtyZ3YDJewovoq-39" value="&lt;b&gt;id (PK) : INT&lt;/b&gt;" style="text;strokeColor=#788AA3;fillColor=#B2C9AB;align=left;verticalAlign=middle;spacingLeft=4;spacingRight=4;overflow=hidden;points=[[0,0.5],[1,0.5]];portConstraint=eastwest;rotatable=0;whiteSpace=wrap;html=1;labelBackgroundColor=none;rounded=1;fontColor=#46495D;" vertex="1" parent="ek_O1ejtyZ3YDJewovoq-38">
          <mxGeometry y="30" width="160" height="30" as="geometry" />
        </mxCell>
        <mxCell id="ek_O1ejtyZ3YDJewovoq-40" value="nombre : VARCHAR" style="text;strokeColor=none;fillColor=none;align=left;verticalAlign=middle;spacingLeft=4;spacingRight=4;overflow=hidden;points=[[0,0.5],[1,0.5]];portConstraint=eastwest;rotatable=0;whiteSpace=wrap;html=1;labelBackgroundColor=none;fontColor=#46495D;rounded=1;" vertex="1" parent="ek_O1ejtyZ3YDJewovoq-38">
          <mxGeometry y="60" width="160" height="30" as="geometry" />
        </mxCell>
        <mxCell id="ek_O1ejtyZ3YDJewovoq-41" value="telefono : INT" style="text;strokeColor=none;fillColor=none;align=left;verticalAlign=middle;spacingLeft=4;spacingRight=4;overflow=hidden;points=[[0,0.5],[1,0.5]];portConstraint=eastwest;rotatable=0;whiteSpace=wrap;html=1;labelBackgroundColor=none;fontColor=#46495D;rounded=1;" vertex="1" parent="ek_O1ejtyZ3YDJewovoq-38">
          <mxGeometry y="90" width="160" height="30" as="geometry" />
        </mxCell>
        <mxCell id="ek_O1ejtyZ3YDJewovoq-46" value="direccion : VARCHAR" style="text;strokeColor=none;fillColor=none;align=left;verticalAlign=middle;spacingLeft=4;spacingRight=4;overflow=hidden;points=[[0,0.5],[1,0.5]];portConstraint=eastwest;rotatable=0;whiteSpace=wrap;html=1;labelBackgroundColor=none;fontColor=#46495D;rounded=1;" vertex="1" parent="ek_O1ejtyZ3YDJewovoq-38">
          <mxGeometry y="120" width="160" height="30" as="geometry" />
        </mxCell>
        <mxCell id="ek_O1ejtyZ3YDJewovoq-47" value="num_puerta : INT" style="text;strokeColor=none;fillColor=none;align=left;verticalAlign=middle;spacingLeft=4;spacingRight=4;overflow=hidden;points=[[0,0.5],[1,0.5]];portConstraint=eastwest;rotatable=0;whiteSpace=wrap;html=1;labelBackgroundColor=none;fontColor=#46495D;rounded=1;" vertex="1" parent="ek_O1ejtyZ3YDJewovoq-38">
          <mxGeometry y="150" width="160" height="30" as="geometry" />
        </mxCell>
        <mxCell id="ek_O1ejtyZ3YDJewovoq-48" value="piso : INT" style="text;strokeColor=none;fillColor=none;align=left;verticalAlign=middle;spacingLeft=4;spacingRight=4;overflow=hidden;points=[[0,0.5],[1,0.5]];portConstraint=eastwest;rotatable=0;whiteSpace=wrap;html=1;labelBackgroundColor=none;fontColor=#46495D;rounded=1;" vertex="1" parent="ek_O1ejtyZ3YDJewovoq-38">
          <mxGeometry y="180" width="160" height="30" as="geometry" />
        </mxCell>
        <mxCell id="ek_O1ejtyZ3YDJewovoq-49" value="departamento" style="text;strokeColor=none;fillColor=none;align=left;verticalAlign=middle;spacingLeft=4;spacingRight=4;overflow=hidden;points=[[0,0.5],[1,0.5]];portConstraint=eastwest;rotatable=0;whiteSpace=wrap;html=1;labelBackgroundColor=none;fontColor=#46495D;rounded=1;" vertex="1" parent="ek_O1ejtyZ3YDJewovoq-38">
          <mxGeometry y="210" width="160" height="30" as="geometry" />
        </mxCell>
        <mxCell id="ek_O1ejtyZ3YDJewovoq-50" value="aclaraciones : VARCHAR" style="text;strokeColor=none;fillColor=none;align=left;verticalAlign=middle;spacingLeft=4;spacingRight=4;overflow=hidden;points=[[0,0.5],[1,0.5]];portConstraint=eastwest;rotatable=0;whiteSpace=wrap;html=1;labelBackgroundColor=none;fontColor=#46495D;rounded=1;" vertex="1" parent="ek_O1ejtyZ3YDJewovoq-38">
          <mxGeometry y="240" width="160" height="30" as="geometry" />
        </mxCell>
        <mxCell id="ek_O1ejtyZ3YDJewovoq-51" value="email : VARCHAR" style="text;strokeColor=none;fillColor=none;align=left;verticalAlign=middle;spacingLeft=4;spacingRight=4;overflow=hidden;points=[[0,0.5],[1,0.5]];portConstraint=eastwest;rotatable=0;whiteSpace=wrap;html=1;labelBackgroundColor=none;fontColor=#46495D;rounded=1;" vertex="1" parent="ek_O1ejtyZ3YDJewovoq-38">
          <mxGeometry y="270" width="160" height="30" as="geometry" />
        </mxCell>
        <mxCell id="ek_O1ejtyZ3YDJewovoq-52" value="contrasenia : VARCHAR" style="text;strokeColor=none;fillColor=none;align=left;verticalAlign=middle;spacingLeft=4;spacingRight=4;overflow=hidden;points=[[0,0.5],[1,0.5]];portConstraint=eastwest;rotatable=0;whiteSpace=wrap;html=1;labelBackgroundColor=none;fontColor=#46495D;rounded=1;" vertex="1" parent="ek_O1ejtyZ3YDJewovoq-38">
          <mxGeometry y="300" width="160" height="30" as="geometry" />
        </mxCell>
        <mxCell id="In70b1UleZM99W8Dhsez-48" value="estado : TINYINT" style="text;strokeColor=none;fillColor=none;align=left;verticalAlign=middle;spacingLeft=4;spacingRight=4;overflow=hidden;points=[[0,0.5],[1,0.5]];portConstraint=eastwest;rotatable=0;whiteSpace=wrap;html=1;labelBackgroundColor=none;fontColor=#46495D;rounded=1;" vertex="1" parent="ek_O1ejtyZ3YDJewovoq-38">
          <mxGeometry y="330" width="160" height="30" as="geometry" />
        </mxCell>
        <mxCell id="ek_O1ejtyZ3YDJewovoq-53" value="Tipo_usuario" style="swimlane;fontStyle=0;childLayout=stackLayout;horizontal=1;startSize=30;horizontalStack=0;resizeParent=1;resizeParentMax=0;resizeLast=0;collapsible=1;marginBottom=0;whiteSpace=wrap;html=1;labelBackgroundColor=none;fillColor=#B2C9AB;strokeColor=#788AA3;fontColor=#46495D;rounded=1;" vertex="1" parent="1">
          <mxGeometry x="370" y="-760" width="140" height="90" as="geometry" />
        </mxCell>
        <mxCell id="ek_O1ejtyZ3YDJewovoq-54" value="&lt;b&gt;id (PK) : INT&lt;/b&gt;" style="text;strokeColor=#788AA3;fillColor=#B2C9AB;align=left;verticalAlign=middle;spacingLeft=4;spacingRight=4;overflow=hidden;points=[[0,0.5],[1,0.5]];portConstraint=eastwest;rotatable=0;whiteSpace=wrap;html=1;labelBackgroundColor=none;rounded=1;fontColor=#46495D;" vertex="1" parent="ek_O1ejtyZ3YDJewovoq-53">
          <mxGeometry y="30" width="140" height="30" as="geometry" />
        </mxCell>
        <mxCell id="ek_O1ejtyZ3YDJewovoq-55" value="tipoUsuario : VARCHAR" style="text;strokeColor=none;fillColor=none;align=left;verticalAlign=middle;spacingLeft=4;spacingRight=4;overflow=hidden;points=[[0,0.5],[1,0.5]];portConstraint=eastwest;rotatable=0;whiteSpace=wrap;html=1;labelBackgroundColor=none;fontColor=#46495D;rounded=1;" vertex="1" parent="ek_O1ejtyZ3YDJewovoq-53">
          <mxGeometry y="60" width="140" height="30" as="geometry" />
        </mxCell>
        <mxCell id="ek_O1ejtyZ3YDJewovoq-57" value="Estado" style="swimlane;fontStyle=0;childLayout=stackLayout;horizontal=1;startSize=30;horizontalStack=0;resizeParent=1;resizeParentMax=0;resizeLast=0;collapsible=1;marginBottom=0;whiteSpace=wrap;html=1;labelBackgroundColor=none;fillColor=#B2C9AB;strokeColor=#788AA3;fontColor=#46495D;rounded=1;" vertex="1" parent="1">
          <mxGeometry x="344" y="-480" width="140" height="90" as="geometry" />
        </mxCell>
        <mxCell id="ek_O1ejtyZ3YDJewovoq-58" value="&lt;b&gt;id (PK) : INT&lt;/b&gt;" style="text;strokeColor=#788AA3;fillColor=#B2C9AB;align=left;verticalAlign=middle;spacingLeft=4;spacingRight=4;overflow=hidden;points=[[0,0.5],[1,0.5]];portConstraint=eastwest;rotatable=0;whiteSpace=wrap;html=1;labelBackgroundColor=none;rounded=1;fontColor=#46495D;" vertex="1" parent="ek_O1ejtyZ3YDJewovoq-57">
          <mxGeometry y="30" width="140" height="30" as="geometry" />
        </mxCell>
        <mxCell id="ek_O1ejtyZ3YDJewovoq-59" value="tipo_estado :VARCHAR" style="text;strokeColor=none;fillColor=none;align=left;verticalAlign=middle;spacingLeft=4;spacingRight=4;overflow=hidden;points=[[0,0.5],[1,0.5]];portConstraint=eastwest;rotatable=0;whiteSpace=wrap;html=1;labelBackgroundColor=none;fontColor=#46495D;rounded=1;" vertex="1" parent="ek_O1ejtyZ3YDJewovoq-57">
          <mxGeometry y="60" width="140" height="30" as="geometry" />
        </mxCell>
        <mxCell id="ek_O1ejtyZ3YDJewovoq-70" value="Membresia" style="swimlane;fontStyle=0;childLayout=stackLayout;horizontal=1;startSize=30;horizontalStack=0;resizeParent=1;resizeParentMax=0;resizeLast=0;collapsible=1;marginBottom=0;whiteSpace=wrap;html=1;labelBackgroundColor=none;fillColor=#B2C9AB;strokeColor=#788AA3;fontColor=#46495D;rounded=1;" vertex="1" parent="1">
          <mxGeometry x="250" y="-630" width="160" height="120" as="geometry" />
        </mxCell>
        <mxCell id="ek_O1ejtyZ3YDJewovoq-71" value="&lt;b&gt;id (PK) : INT&lt;/b&gt;" style="text;strokeColor=#788AA3;fillColor=#B2C9AB;align=left;verticalAlign=middle;spacingLeft=4;spacingRight=4;overflow=hidden;points=[[0,0.5],[1,0.5]];portConstraint=eastwest;rotatable=0;whiteSpace=wrap;html=1;labelBackgroundColor=none;rounded=1;fontColor=#46495D;" vertex="1" parent="ek_O1ejtyZ3YDJewovoq-70">
          <mxGeometry y="30" width="160" height="30" as="geometry" />
        </mxCell>
        <mxCell id="ek_O1ejtyZ3YDJewovoq-72" value="fecha_alta : DATE" style="text;strokeColor=none;fillColor=none;align=left;verticalAlign=middle;spacingLeft=4;spacingRight=4;overflow=hidden;points=[[0,0.5],[1,0.5]];portConstraint=eastwest;rotatable=0;whiteSpace=wrap;html=1;labelBackgroundColor=none;fontColor=#46495D;rounded=1;" vertex="1" parent="ek_O1ejtyZ3YDJewovoq-70">
          <mxGeometry y="60" width="160" height="30" as="geometry" />
        </mxCell>
        <mxCell id="ek_O1ejtyZ3YDJewovoq-73" value="fecha_vencimiento : DATE" style="text;strokeColor=none;fillColor=none;align=left;verticalAlign=middle;spacingLeft=4;spacingRight=4;overflow=hidden;points=[[0,0.5],[1,0.5]];portConstraint=eastwest;rotatable=0;whiteSpace=wrap;html=1;labelBackgroundColor=none;fontColor=#46495D;rounded=1;" vertex="1" parent="ek_O1ejtyZ3YDJewovoq-70">
          <mxGeometry y="90" width="160" height="30" as="geometry" />
        </mxCell>
        <mxCell id="In70b1UleZM99W8Dhsez-10" value="plato_ingrediente" style="swimlane;fontStyle=0;childLayout=stackLayout;horizontal=1;startSize=30;horizontalStack=0;resizeParent=1;resizeParentMax=0;resizeLast=0;collapsible=1;marginBottom=0;whiteSpace=wrap;html=1;labelBackgroundColor=none;fillColor=#B2C9AB;strokeColor=#788AA3;fontColor=#46495D;rounded=1;" vertex="1" parent="1">
          <mxGeometry x="460" y="-1150" width="150" height="120" as="geometry" />
        </mxCell>
        <mxCell id="In70b1UleZM99W8Dhsez-11" value="&lt;b&gt;id (PK) : INT&lt;/b&gt;" style="text;strokeColor=#788AA3;fillColor=#B2C9AB;align=left;verticalAlign=middle;spacingLeft=4;spacingRight=4;overflow=hidden;points=[[0,0.5],[1,0.5]];portConstraint=eastwest;rotatable=0;whiteSpace=wrap;html=1;labelBackgroundColor=none;rounded=1;fontColor=#46495D;" vertex="1" parent="In70b1UleZM99W8Dhsez-10">
          <mxGeometry y="30" width="150" height="30" as="geometry" />
        </mxCell>
        <mxCell id="In70b1UleZM99W8Dhsez-12" value="&lt;b&gt;id_plato (FK) : INT&lt;/b&gt;" style="text;strokeColor=#788AA3;fillColor=#B2C9AB;align=left;verticalAlign=middle;spacingLeft=4;spacingRight=4;overflow=hidden;points=[[0,0.5],[1,0.5]];portConstraint=eastwest;rotatable=0;whiteSpace=wrap;html=1;labelBackgroundColor=none;rounded=1;fontColor=#46495D;" vertex="1" parent="In70b1UleZM99W8Dhsez-10">
          <mxGeometry y="60" width="150" height="30" as="geometry" />
        </mxCell>
        <mxCell id="In70b1UleZM99W8Dhsez-13" value="&lt;b&gt;id_ingrediente (FK) : INT&lt;/b&gt;" style="text;strokeColor=#788AA3;fillColor=#B2C9AB;align=left;verticalAlign=middle;spacingLeft=4;spacingRight=4;overflow=hidden;points=[[0,0.5],[1,0.5]];portConstraint=eastwest;rotatable=0;whiteSpace=wrap;html=1;labelBackgroundColor=none;rounded=1;fontColor=#46495D;" vertex="1" parent="In70b1UleZM99W8Dhsez-10">
          <mxGeometry y="90" width="150" height="30" as="geometry" />
        </mxCell>
        <mxCell id="In70b1UleZM99W8Dhsez-21" value="" style="edgeStyle=entityRelationEdgeStyle;fontSize=12;html=1;endArrow=ERone;endFill=1;rounded=1;exitX=0;exitY=0.5;exitDx=0;exitDy=0;startArrow=ERmany;startFill=0;entryX=1;entryY=0.233;entryDx=0;entryDy=0;entryPerimeter=0;labelBackgroundColor=none;strokeColor=#788AA3;fontColor=default;" edge="1" parent="1" source="ek_O1ejtyZ3YDJewovoq-15" target="ek_O1ejtyZ3YDJewovoq-2">
          <mxGeometry width="100" height="100" relative="1" as="geometry">
            <mxPoint x="170" y="-860" as="sourcePoint" />
            <mxPoint x="50" y="-889" as="targetPoint" />
          </mxGeometry>
        </mxCell>
        <mxCell id="In70b1UleZM99W8Dhsez-22" value="" style="edgeStyle=entityRelationEdgeStyle;fontSize=12;html=1;endArrow=ERone;endFill=1;rounded=1;startArrow=ERmany;startFill=0;exitX=1;exitY=0.5;exitDx=0;exitDy=0;labelBackgroundColor=none;strokeColor=#788AA3;fontColor=default;" edge="1" parent="1" source="ek_O1ejtyZ3YDJewovoq-15" target="ek_O1ejtyZ3YDJewovoq-21">
          <mxGeometry width="100" height="100" relative="1" as="geometry">
            <mxPoint x="395" y="-1070" as="sourcePoint" />
            <mxPoint x="400" y="-880" as="targetPoint" />
            <Array as="points">
              <mxPoint x="400" y="-1050" />
            </Array>
          </mxGeometry>
        </mxCell>
        <mxCell id="In70b1UleZM99W8Dhsez-23" value="" style="edgeStyle=entityRelationEdgeStyle;fontSize=12;html=1;endArrow=ERone;endFill=1;rounded=1;startArrow=ERmany;startFill=0;entryX=1.007;entryY=0.067;entryDx=0;entryDy=0;entryPerimeter=0;labelBackgroundColor=none;strokeColor=#788AA3;fontColor=default;" edge="1" parent="1" source="In70b1UleZM99W8Dhsez-12" target="ek_O1ejtyZ3YDJewovoq-15">
          <mxGeometry width="100" height="100" relative="1" as="geometry">
            <mxPoint x="380" y="-1015" as="sourcePoint" />
            <mxPoint x="410" y="-1045" as="targetPoint" />
            <Array as="points">
              <mxPoint x="410" y="-1040" />
            </Array>
          </mxGeometry>
        </mxCell>
        <mxCell id="In70b1UleZM99W8Dhsez-24" value="" style="edgeStyle=entityRelationEdgeStyle;fontSize=12;html=1;endArrow=ERone;endFill=1;rounded=1;startArrow=ERmany;startFill=0;exitX=0.993;exitY=0.8;exitDx=0;exitDy=0;exitPerimeter=0;labelBackgroundColor=none;strokeColor=#788AA3;fontColor=default;" edge="1" parent="1">
          <mxGeometry width="100" height="100" relative="1" as="geometry">
            <mxPoint x="610" y="-1045" as="sourcePoint" />
            <mxPoint x="670" y="-1100" as="targetPoint" />
            <Array as="points">
              <mxPoint x="668.0999999999999" y="-869" />
            </Array>
          </mxGeometry>
        </mxCell>
        <mxCell id="In70b1UleZM99W8Dhsez-25" value="plato_pedido" style="swimlane;fontStyle=0;childLayout=stackLayout;horizontal=1;startSize=30;horizontalStack=0;resizeParent=1;resizeParentMax=0;resizeLast=0;collapsible=1;marginBottom=0;whiteSpace=wrap;html=1;labelBackgroundColor=none;fillColor=#B2C9AB;strokeColor=#788AA3;fontColor=#46495D;rounded=1;" vertex="1" parent="1">
          <mxGeometry x="440" y="-890" width="140" height="120" as="geometry" />
        </mxCell>
        <mxCell id="In70b1UleZM99W8Dhsez-26" value="&lt;b&gt;id (PK) : INT&lt;/b&gt;" style="text;strokeColor=#788AA3;fillColor=#B2C9AB;align=left;verticalAlign=middle;spacingLeft=4;spacingRight=4;overflow=hidden;points=[[0,0.5],[1,0.5]];portConstraint=eastwest;rotatable=0;whiteSpace=wrap;html=1;labelBackgroundColor=none;rounded=1;fontColor=#46495D;" vertex="1" parent="In70b1UleZM99W8Dhsez-25">
          <mxGeometry y="30" width="140" height="30" as="geometry" />
        </mxCell>
        <mxCell id="In70b1UleZM99W8Dhsez-27" value="&lt;b&gt;id_pedido (FK) : INT&lt;/b&gt;" style="text;strokeColor=#788AA3;fillColor=#B2C9AB;align=left;verticalAlign=middle;spacingLeft=4;spacingRight=4;overflow=hidden;points=[[0,0.5],[1,0.5]];portConstraint=eastwest;rotatable=0;whiteSpace=wrap;html=1;labelBackgroundColor=none;rounded=1;fontColor=#46495D;" vertex="1" parent="In70b1UleZM99W8Dhsez-25">
          <mxGeometry y="60" width="140" height="30" as="geometry" />
        </mxCell>
        <mxCell id="In70b1UleZM99W8Dhsez-28" value="&lt;b&gt;id_plato (FK) : INT&lt;/b&gt;" style="text;strokeColor=#788AA3;fillColor=#B2C9AB;align=left;verticalAlign=middle;spacingLeft=4;spacingRight=4;overflow=hidden;points=[[0,0.5],[1,0.5]];portConstraint=eastwest;rotatable=0;whiteSpace=wrap;html=1;labelBackgroundColor=none;rounded=1;fontColor=#46495D;" vertex="1" parent="In70b1UleZM99W8Dhsez-25">
          <mxGeometry y="90" width="140" height="30" as="geometry" />
        </mxCell>
        <mxCell id="In70b1UleZM99W8Dhsez-31" value="" style="edgeStyle=entityRelationEdgeStyle;fontSize=12;html=1;endArrow=ERone;endFill=1;rounded=1;startArrow=ERmany;startFill=0;exitX=0;exitY=0.5;exitDx=0;exitDy=0;entryX=1;entryY=0.5;entryDx=0;entryDy=0;labelBackgroundColor=none;strokeColor=#788AA3;fontColor=default;" edge="1" parent="1" source="In70b1UleZM99W8Dhsez-26" target="ek_O1ejtyZ3YDJewovoq-16">
          <mxGeometry width="100" height="100" relative="1" as="geometry">
            <mxPoint x="380" y="-1015" as="sourcePoint" />
            <mxPoint x="560" y="-965" as="targetPoint" />
            <Array as="points">
              <mxPoint x="410" y="-1040" />
            </Array>
          </mxGeometry>
        </mxCell>
        <mxCell id="In70b1UleZM99W8Dhsez-34" value="" style="edgeStyle=entityRelationEdgeStyle;fontSize=12;html=1;endArrow=ERone;endFill=1;rounded=1;startArrow=ERmany;startFill=0;exitX=0;exitY=0.5;exitDx=0;exitDy=0;entryX=1;entryY=0.5;entryDx=0;entryDy=0;labelBackgroundColor=none;strokeColor=#788AA3;fontColor=default;" edge="1" parent="1" source="ek_O1ejtyZ3YDJewovoq-39" target="ek_O1ejtyZ3YDJewovoq-54">
          <mxGeometry width="100" height="100" relative="1" as="geometry">
            <mxPoint x="512" y="-510" as="sourcePoint" />
            <mxPoint x="300" y="-487" as="targetPoint" />
            <Array as="points">
              <mxPoint x="392.49" y="-443.99" />
              <mxPoint x="410" y="-462" />
              <mxPoint x="420" y="-482" />
            </Array>
          </mxGeometry>
        </mxCell>
        <mxCell id="HUTEU_Ihulros4H0YGMC-1" value="" style="edgeStyle=entityRelationEdgeStyle;fontSize=12;html=1;endArrow=ERone;endFill=1;rounded=1;startArrow=ERmany;startFill=0;entryX=1;entryY=0.5;entryDx=0;entryDy=0;exitX=0;exitY=0.5;exitDx=0;exitDy=0;labelBackgroundColor=none;strokeColor=#788AA3;fontColor=default;" edge="1" parent="1" source="In70b1UleZM99W8Dhsez-27" target="ek_O1ejtyZ3YDJewovoq-30">
          <mxGeometry width="100" height="100" relative="1" as="geometry">
            <mxPoint x="369" y="-790" as="sourcePoint" />
            <mxPoint x="280" y="-753" as="targetPoint" />
            <Array as="points">
              <mxPoint x="319" y="-755" />
              <mxPoint x="250" y="-800" />
              <mxPoint x="330" y="-830" />
            </Array>
          </mxGeometry>
        </mxCell>
        <mxCell id="HUTEU_Ihulros4H0YGMC-2" value="" style="edgeStyle=entityRelationEdgeStyle;fontSize=12;html=1;endArrow=ERone;endFill=1;rounded=1;startArrow=ERmany;startFill=0;entryX=0;entryY=0.5;entryDx=0;entryDy=0;labelBackgroundColor=none;strokeColor=#788AA3;fontColor=default;" edge="1" parent="1" target="ek_O1ejtyZ3YDJewovoq-50">
          <mxGeometry width="100" height="100" relative="1" as="geometry">
            <mxPoint x="230" y="-738" as="sourcePoint" />
            <mxPoint x="430" y="-540" as="targetPoint" />
            <Array as="points">
              <mxPoint x="262.49" y="-278.99" />
              <mxPoint x="280" y="-297" />
              <mxPoint x="290" y="-317" />
            </Array>
          </mxGeometry>
        </mxCell>
        <mxCell id="HUTEU_Ihulros4H0YGMC-3" value="" style="edgeStyle=entityRelationEdgeStyle;fontSize=12;html=1;endArrow=ERone;endFill=1;rounded=1;startArrow=ERmany;startFill=0;exitX=0;exitY=-0.3;exitDx=0;exitDy=0;entryX=1;entryY=0.5;entryDx=0;entryDy=0;exitPerimeter=0;labelBackgroundColor=none;strokeColor=#788AA3;fontColor=default;" edge="1" parent="1" source="In70b1UleZM99W8Dhsez-48" target="ek_O1ejtyZ3YDJewovoq-57">
          <mxGeometry width="100" height="100" relative="1" as="geometry">
            <mxPoint x="680" y="-430" as="sourcePoint" />
            <mxPoint x="600" y="-360" as="targetPoint" />
            <Array as="points">
              <mxPoint x="432.49" y="-98.99000000000001" />
              <mxPoint x="450" y="-117" />
              <mxPoint x="460" y="-137" />
            </Array>
          </mxGeometry>
        </mxCell>
        <mxCell id="HUTEU_Ihulros4H0YGMC-4" value="" style="edgeStyle=entityRelationEdgeStyle;fontSize=12;html=1;endArrow=ERone;endFill=1;rounded=1;startArrow=ERmany;startFill=0;exitX=0;exitY=0.5;exitDx=0;exitDy=0;entryX=1;entryY=0.5;entryDx=0;entryDy=0;labelBackgroundColor=none;strokeColor=#788AA3;fontColor=default;" edge="1" parent="1" source="ek_O1ejtyZ3YDJewovoq-51" target="ek_O1ejtyZ3YDJewovoq-72">
          <mxGeometry width="100" height="100" relative="1" as="geometry">
            <mxPoint x="355.0399999999999" y="-366" as="sourcePoint" />
            <mxPoint x="129.99999999999994" y="-440" as="targetPoint" />
            <Array as="points">
              <mxPoint x="19.44999999999999" y="-91" />
              <mxPoint x="36.95999999999998" y="-109.00999999999999" />
              <mxPoint x="46.95999999999998" y="-129.01" />
            </Array>
          </mxGeometry>
        </mxCell>
      </root>
    </mxGraphModel>
  </diagram>
</mxfile>
